<svg xmlns="http://www.w3.org/2000/svg" version="1.1" xmlns:xlink="http://www.w3.org/1999/xlink" xmlns:svgjs="http://svgjs.dev/svgjs" width="150" height="150" viewBox="0 0 1500 939"><g transform="matrix(1,0,0,1,-0.9090909090909918,-1.5145161290323017)"><svg viewBox="0 0 396 248" data-background-color="#ffffff" preserveAspectRatio="xMidYMid meet" height="939" width="1500" xmlns="http://www.w3.org/2000/svg" xmlns:xlink="http://www.w3.org/1999/xlink"><g id="tight-bounds" transform="matrix(1,0,0,1,0.2400000000000091,0.4000000000000057)"><svg viewBox="0 0 395.52 247.2" height="247.2" width="395.52"><g><svg></svg></g><g><svg viewBox="0 0 395.52 247.2" height="247.2" width="395.52"><mask id="1d38a022-f8cc-4b56-b824-3ddaaf96156c"><rect width="395.52" height="247.2" fill="white"></rect><g transform="matrix(1,0,0,1,0,50.33987152034261)" id="clone"><svg viewBox="0 0 395.52 146.52025695931476" height="146.52025695931476" width="395.52"><g><svg viewBox="0 0 395.52 146.52025695931476" height="146.52025695931476" width="395.52"><g><svg viewBox="0 0 395.52 146.52025695931476" height="146.52025695931476" width="395.52"><g><svg viewBox="0 0 395.52 146.52025695931476" height="146.52025695931476" width="395.52"><g id="SvgjsG3902"><svg viewBox="0 0 395.52 146.52025695931476" height="146.52025695931476" width="395.52" id="SvgjsSvg3901"><g><svg viewBox="0 0 395.52 146.52025695931476" height="146.52025695931476" width="395.52"><g transform="matrix(1,0,0,1,0,0)"><svg width="395.52" viewBox="-0.7000000000000002 -40.5 117.74000000000001 44.25" height="146.52025695931476" data-palette-color="#4d331f"><path d="M27.1-13.45L27.1-1.5Q27.1-1.25 27.48-1.1 27.85-0.95 28.25-0.95L28.25-0.95 28.25 0 19.45 0 19.45-0.95Q19.85-0.95 20.23-1.1 20.6-1.25 20.6-1.5L20.6-1.5 20.6-11.9Q20.6-14.45 19.35-16.28 18.1-18.1 15.6-18.1L15.6-18.1Q13.05-18.1 11.35-16.4 9.65-14.7 9.65-11.5L9.65-11.5 9.65-1.5Q9.65-1.25 10.03-1.1 10.4-0.95 10.75-0.95L10.75-0.95 10.75 0 2.3 0 2.3-0.95Q2.65-0.95 3.03-1.1 3.4-1.25 3.4-1.5L3.4-1.5 3.4-36Q3.4-36.25 3.03-36.4 2.65-36.55 2.3-36.55L2.3-36.55 2.3-37.5 10.75-37.5 10.75-36.55Q10.4-36.55 10.03-36.4 9.65-36.25 9.65-36L9.65-36 9.65-20.75Q10.95-22 12.83-22.75 14.7-23.5 16.6-23.5L16.6-23.5Q19.85-23.5 22.23-22.15 24.6-20.8 25.85-18.53 27.1-16.25 27.1-13.45L27.1-13.45ZM59.9-23L59.9-22.05Q59.55-22.05 59.17-21.9 58.8-21.75 58.8-21.5L58.8-21.5 58.8-1.5Q58.8-1.25 59.17-1.1 59.55-0.95 59.9-0.95L59.9-0.95 59.9 0 52.5 0 52.5-2.75Q49.35 0.65 44.55 0.65L44.55 0.65Q40.9 0.65 38.12-0.83 35.35-2.3 33.82-5.05 32.3-7.8 32.3-11.45L32.3-11.45Q32.3-15 33.97-17.78 35.65-20.55 38.45-22.08 41.25-23.6 44.55-23.6L44.55-23.6Q49.35-23.6 52.5-19.9L52.5-19.9 52.5-23 59.9-23ZM45.3-4.65Q47.35-4.65 48.97-5.58 50.6-6.5 51.5-8.03 52.4-9.55 52.4-11.3L52.4-11.3Q52.4-14.3 50.42-16.25 48.45-18.2 45.3-18.2L45.3-18.2Q42.25-18.2 40.27-16.3 38.3-14.4 38.3-11.45L38.3-11.45Q38.3-8.35 40.32-6.5 42.35-4.65 45.3-4.65L45.3-4.65ZM89.3-13.45L89.3-1.5Q89.3-1.25 89.67-1.1 90.05-0.95 90.45-0.95L90.45-0.95 90.45 0 81.65 0 81.65-0.95Q82.05-0.95 82.42-1.1 82.8-1.25 82.8-1.5L82.8-1.5 82.8-11.9Q82.8-14.45 81.55-16.28 80.3-18.1 77.8-18.1L77.8-18.1Q75.25-18.1 73.67-16.4 72.1-14.7 72.1-11.5L72.1-11.5 72.1-1.5Q72.1-1.25 72.47-1.1 72.85-0.95 73.25-0.95L73.25-0.95 73.25 0 64.5 0 64.5-0.95Q64.9-0.95 65.27-1.1 65.65-1.25 65.65-1.5L65.65-1.5 65.65-21.5Q65.65-21.75 65.27-21.9 64.9-22.05 64.55-22.05L64.55-22.05 64.55-23 72.1-23 72.1-20.95Q73.4-22.15 75.17-22.83 76.95-23.5 78.8-23.5L78.8-23.5Q82-23.5 84.37-22.15 86.75-20.8 88.02-18.53 89.3-16.25 89.3-13.45L89.3-13.45ZM104.74 0.75Q102.19 0.75 99.82-0.3 97.44-1.35 95.04-3.3L95.04-3.3Q94.94-3.4 94.79-3.4L94.79-3.4Q94.39-3.4 93.94-2.95L93.94-2.95 93.24-3.55 98.24-9.25 98.94-8.6Q98.74-8.35 98.62-8 98.49-7.65 98.69-7.45L98.69-7.45Q100.34-5.95 101.77-5.23 103.19-4.5 104.74-4.5L104.74-4.5Q108.59-4.5 108.59-7.05L108.59-7.05Q108.59-8.2 107.42-8.83 106.24-9.45 103.49-10.2L103.49-10.2Q99.94-11.15 98.34-12.68 96.74-14.2 96.74-16.85L96.74-16.85Q96.74-20 98.79-21.98 100.84-23.95 104.39-23.95L104.39-23.95Q106.19-23.95 107.64-23.4 109.09-22.85 111.14-21.45L111.14-21.45Q111.19-21.4 111.34-21.4L111.34-21.4Q111.59-21.4 111.84-21.55 112.09-21.7 112.19-21.85L112.19-21.85 112.94-21.2 108.44-16.1 107.74-16.7Q107.94-16.9 108.02-17.23 108.09-17.55 107.89-17.75L107.89-17.75Q106.99-18.45 106.17-18.8 105.34-19.15 104.34-19.15L104.34-19.15Q103.29-19.15 102.69-18.75 102.09-18.35 102.09-17.55L102.09-17.55Q102.09-16.9 102.44-16.5 102.79-16.1 103.72-15.7 104.64-15.3 106.54-14.7L106.54-14.7Q110.04-13.65 112.04-11.78 114.04-9.9 114.04-7.15L114.04-7.15Q114.04-3.1 111.49-1.18 108.94 0.75 104.74 0.75L104.74 0.75Z" opacity="1" transform="matrix(1,0,0,1,0,0)" fill="black" class="wordmark-text-0" id="SvgjsPath3900" stroke-width="5" stroke="black" stroke-linejoin="round"></path></svg></g></svg></g></svg></g></svg></g></svg></g></svg></g></svg></g></mask><g mask="url(#1d38a022-f8cc-4b56-b824-3ddaaf96156c)"><g><path d="M307.187 0v6.262c-1.538 0-3.23 0.33-5.076 0.989-1.89 0.659-2.835 1.538-2.834 2.637v0 227.424c0 1.099 0.945 1.978 2.834 2.637 1.846 0.659 3.538 0.989 5.076 0.989v0 6.262h-61.965v-6.262c1.538 0 3.252-0.33 5.142-0.989 1.846-0.659 2.769-1.538 2.769-2.637v0-99.539h-110.746v99.539c0 1.099 0.945 1.978 2.835 2.637 1.846 0.659 3.538 0.989 5.076 0.989v0 6.262h-61.965v-6.262c1.538 0 3.252-0.33 5.142-0.989 1.846-0.659 2.769-1.538 2.768-2.637v0-227.424c0-1.099-0.923-1.978-2.768-2.637-1.89-0.659-3.604-0.989-5.142-0.989v0-6.262h61.965v6.262c-1.538 0-3.23 0.33-5.076 0.989-1.89 0.659-2.835 1.538-2.835 2.637v0 86.685h110.746v-86.685c0-1.099-0.923-1.978-2.769-2.637-1.89-0.659-3.604-0.989-5.142-0.989v0-6.262z" fill="#4d331f" fill-rule="nonzero" stroke="none" stroke-width="1" stroke-linecap="butt" stroke-linejoin="miter" stroke-miterlimit="10" stroke-dasharray="" stroke-dashoffset="0" font-family="none" font-weight="none" font-size="none" text-anchor="none" style="mix-blend-mode: normal" data-fill-palette-color="tertiary"></path></g></g><g transform="matrix(1,0,0,1,0,50.33987152034261)"><svg viewBox="0 0 395.52 146.52025695931476" height="146.52025695931476" width="395.52"><g><svg viewBox="0 0 395.52 146.52025695931476" height="146.52025695931476" width="395.52"><g><svg viewBox="0 0 395.52 146.52025695931476" height="146.52025695931476" width="395.52"><g><svg viewBox="0 0 395.52 146.52025695931476" height="146.52025695931476" width="395.52"><g id="textblocktransform"><svg viewBox="0 0 395.52 146.52025695931476" height="146.52025695931476" width="395.52" id="textblock"><g><svg viewBox="0 0 395.52 146.52025695931476" height="146.52025695931476" width="395.52"><g transform="matrix(1,0,0,1,0,0)"><svg width="395.52" viewBox="-0.7000000000000002 -40.5 117.74000000000001 44.25" height="146.52025695931476" data-palette-color="#4d331f"><path d="M27.1-13.45L27.1-1.5Q27.1-1.25 27.48-1.1 27.85-0.95 28.25-0.95L28.25-0.95 28.25 0 19.45 0 19.45-0.95Q19.85-0.95 20.23-1.1 20.6-1.25 20.6-1.5L20.6-1.5 20.6-11.9Q20.6-14.45 19.35-16.28 18.1-18.1 15.6-18.1L15.6-18.1Q13.05-18.1 11.35-16.4 9.65-14.7 9.65-11.5L9.65-11.5 9.65-1.5Q9.65-1.25 10.03-1.1 10.4-0.95 10.75-0.95L10.75-0.95 10.75 0 2.3 0 2.3-0.95Q2.65-0.95 3.03-1.1 3.4-1.25 3.4-1.5L3.4-1.5 3.4-36Q3.4-36.25 3.03-36.4 2.65-36.55 2.3-36.55L2.3-36.55 2.3-37.5 10.75-37.5 10.75-36.55Q10.4-36.55 10.03-36.4 9.65-36.25 9.65-36L9.65-36 9.65-20.75Q10.95-22 12.83-22.75 14.7-23.5 16.6-23.5L16.6-23.5Q19.85-23.5 22.23-22.15 24.6-20.8 25.85-18.53 27.1-16.25 27.1-13.45L27.1-13.45ZM59.9-23L59.9-22.05Q59.55-22.05 59.17-21.9 58.8-21.75 58.8-21.5L58.8-21.5 58.8-1.5Q58.8-1.25 59.17-1.1 59.55-0.95 59.9-0.95L59.9-0.95 59.9 0 52.5 0 52.5-2.75Q49.35 0.65 44.55 0.65L44.55 0.65Q40.9 0.65 38.12-0.83 35.35-2.3 33.82-5.05 32.3-7.8 32.3-11.45L32.3-11.45Q32.3-15 33.97-17.78 35.65-20.55 38.45-22.08 41.25-23.6 44.55-23.6L44.55-23.6Q49.35-23.6 52.5-19.9L52.5-19.9 52.5-23 59.9-23ZM45.3-4.65Q47.35-4.65 48.97-5.58 50.6-6.5 51.5-8.03 52.4-9.55 52.4-11.3L52.4-11.3Q52.4-14.3 50.42-16.25 48.45-18.2 45.3-18.2L45.3-18.2Q42.25-18.2 40.27-16.3 38.3-14.4 38.3-11.45L38.3-11.45Q38.3-8.35 40.32-6.5 42.35-4.65 45.3-4.65L45.3-4.65ZM89.3-13.45L89.3-1.5Q89.3-1.25 89.67-1.1 90.05-0.95 90.45-0.95L90.45-0.95 90.45 0 81.65 0 81.65-0.95Q82.05-0.95 82.42-1.1 82.8-1.25 82.8-1.5L82.8-1.5 82.8-11.9Q82.8-14.45 81.55-16.28 80.3-18.1 77.8-18.1L77.8-18.1Q75.25-18.1 73.67-16.4 72.1-14.7 72.1-11.5L72.1-11.5 72.1-1.5Q72.1-1.25 72.47-1.1 72.85-0.95 73.25-0.95L73.25-0.95 73.25 0 64.5 0 64.5-0.95Q64.9-0.95 65.27-1.1 65.65-1.25 65.65-1.5L65.65-1.5 65.65-21.5Q65.65-21.75 65.27-21.9 64.9-22.05 64.55-22.05L64.55-22.05 64.55-23 72.1-23 72.1-20.95Q73.4-22.15 75.17-22.83 76.95-23.5 78.8-23.5L78.8-23.5Q82-23.5 84.37-22.15 86.75-20.8 88.02-18.53 89.3-16.25 89.3-13.45L89.3-13.45ZM104.74 0.75Q102.19 0.75 99.82-0.3 97.44-1.35 95.04-3.3L95.04-3.3Q94.94-3.4 94.79-3.4L94.79-3.4Q94.39-3.4 93.94-2.95L93.94-2.95 93.24-3.55 98.24-9.25 98.94-8.6Q98.74-8.35 98.62-8 98.49-7.65 98.69-7.45L98.69-7.45Q100.34-5.95 101.77-5.23 103.19-4.5 104.74-4.5L104.74-4.5Q108.59-4.5 108.59-7.05L108.59-7.05Q108.59-8.2 107.42-8.83 106.24-9.45 103.49-10.2L103.49-10.2Q99.94-11.15 98.34-12.68 96.74-14.2 96.74-16.85L96.74-16.85Q96.74-20 98.79-21.98 100.84-23.95 104.39-23.95L104.39-23.95Q106.19-23.95 107.64-23.4 109.09-22.85 111.14-21.45L111.14-21.45Q111.19-21.4 111.34-21.4L111.34-21.4Q111.59-21.4 111.84-21.55 112.09-21.7 112.19-21.85L112.19-21.85 112.94-21.2 108.44-16.1 107.74-16.7Q107.94-16.9 108.02-17.23 108.09-17.55 107.89-17.75L107.89-17.75Q106.99-18.45 106.17-18.8 105.34-19.15 104.34-19.15L104.34-19.15Q103.29-19.15 102.69-18.75 102.09-18.35 102.09-17.55L102.09-17.55Q102.09-16.9 102.44-16.5 102.79-16.1 103.72-15.7 104.64-15.3 106.54-14.7L106.54-14.7Q110.04-13.65 112.04-11.78 114.04-9.9 114.04-7.15L114.04-7.15Q114.04-3.1 111.49-1.18 108.94 0.75 104.74 0.75L104.74 0.75Z" opacity="1" transform="matrix(1,0,0,1,0,0)" fill="#4d331f" class="wordmark-text-0" data-fill-palette-color="primary" id="text-0"></path></svg></g></svg></g></svg></g></svg></g></svg></g></svg></g></svg></g></svg></g><defs></defs></svg><rect width="395.52" height="247.2" fill="none" stroke="none" visibility="hidden"></rect></g></svg></g></svg>